# AST/ASF file generated using VICON BodyLanguage
# -----------------------------------------------
:version 1.10
:name VICON
:units
  mass 1.0
  length 0.45
  angle deg
:documentation
   .ast/.asf automatically generated from VICON data using
   VICON BodyBuilder and BodyLanguage model FoxedUp or BRILLIANT.MOD
:root
   order TX TY TZ RX RY RZ
   axis XYZ
   position 0 0 0  
   orientation 0 0 0 
:bonedata
  begin
     id 1 
     name lhipjoint
     direction 0.611804 -0.747784 0.257906 
     length 2.29243 
     axis 0 0 0  XYZ
  end
  begin
     id 2 
     name lfemur
     direction 0.34202 -0.939693 0  
     length 7.31159  
     axis 0 0 20  XYZ
    dof rx ry rz
    limits (-160.0 20.0)
           (-70.0 70.0)
           (-60.0 70.0)
  end
  begin
     id 3 
     name ltibia
     direction 0.34202 -0.939693 0   
     length 7.33391   
     axis 0 0 20   XYZ
    dof rx
    limits (-10.0 170.0)
  end
  begin
     id 4 
     name lfoot
     direction 0.122263 -0.335914 0.933924   
     length 1.76083   
     axis -90 7.62852e-016 20   XYZ
    dof rx rz
    limits (-45.0 90.0)
           (-70.0 20.0)
  end
  begin
     id 5 
     name ltoes
     direction 1.53533e-011 -4.2177e-011 1   
     length 0.879206   
     axis -90 7.62852e-016 20   XYZ
    dof rx
    limits (-90.0 20.0)
  end
  begin
     id 6 
     name rhipjoint
     direction -0.646469 -0.721248 0.248754   
     length 2.37677  
     axis 0 0 0  XYZ 
  end
  begin
     id 7 
     name rfemur
     direction -0.34202 -0.939693 0   
     length 7.18623   
     axis 0 0 -20   XYZ
    dof rx ry rz
    limits (-160.0 20.0)
           (-70.0 70.0)
           (-70.0 60.0)
  end
  begin
     id 8 
     name rtibia
     direction -0.34202 -0.939693 0   
     length 7.36567   
     axis 0 0 -20   XYZ
    dof rx
    limits (-10.0 170.0)
 end
 begin
     id 9 
     name rfoot
     direction -0.126681 -0.348054 0.928876   
     length 1.71902  
     axis -90 -7.62852e-016 -20   XYZ
    dof rx rz
    limits (-45.0 90.0)
           (-20.0 70.0)
  end
  begin
     id 10 
     name rtoes
     direction -1.53551e-011 -4.21898e-011 1   
     length 0.857792   
     axis -90 -7.62852e-016 -20   XYZ
    dof rx
    limits (-90.0 20.0)
  end
  begin
     id 11 
     name lowerback
     direction 0.0106509 0.999778 0.0181844   
     length 2.07668   
     axis 0 0 0   XYZ
    dof rx ry rz
    limits (-20.0 45.0)
           (-30.0 30.0)
           (-30.0 30.0)
  end
  begin
     id 12 
     name upperback
     direction -0.00456018 0.999989 -0.000590935   
     length 2.08011   
     axis 0 0 0   XYZ
    dof rx ry rz
    limits (-20.0 45.0)
           (-30.0 30.0)
           (-30.0 30.0)
  end
  begin
     id 13 
     name thorax
     direction -0.00910382 0.999916 -0.00923765   
     length 2.07397   
     axis 0 0 0   XYZ
    dof rx ry rz
    limits (-20.0 45.0)
           (-30.0 30.0)
           (-30.0 30.0)
  end
  begin
     id 14 
     name lowerneck
     direction 0.00171967 0.99778 0.0665733   
     length 1.67556   
     axis 0 0 0   XYZ
    dof rx ry rz
    limits (-20.0 45.0)
           (-30.0 30.0)
           (-30.0 30.0)
  end
  begin
     id 15 
     name upperneck
     direction -0.0143166 0.991302 -0.130828   
     length 1.68462   
     axis 0 0 0   XYZ
    dof rx ry rz
    limits (-20.0 45.0)
           (-30.0 30.0)
           (-30.0 30.0)
  end
  begin
     id 16
     name head
     direction -0.00606378 0.998665 -0.0512995  
     length 1.69269  
     axis 0 0 0   XYZ
    dof rx ry rz
    limits (-20.0 45.0)
           (-30.0 30.0)
           (-30.0 30.0)
  end
  begin
     id 17 
     name lclavicle
     direction 0.9638 0.179341 0.197297  
     length 4.12888  
     axis 0 0 0   XYZ
    dof ry rz
    limits (-20.0 10.0)
           (0.0 20.0)
  end
  begin
     id 18 
     name lhumerus
     direction 1 -4.48972e-011 -2.47351e-027   
     length 5.01834   
     axis -180 -30 -90   XYZ
    dof rx ry rz
    limits (-60.0 90.0)
           (-90.0 90.0)
           (-90.0 90.0)
  end
  begin
     id 19
     name lradius
     direction 1 -4.48965e-011 1.51591e-026   
     length 3.4869   
     axis -180 -30 -90   XYZ
    dof rx
    limits (-10.0 170.0)
  end
  begin
     id 20
     name lwrist
     direction 1 -4.48957e-011 2.70032e-026   
     length 1.74345   
     axis -1.81515e-014 90 90   XYZ
    dof ry
    limits (-180.0 0.0)
 end
  begin
     id 21 
     name lhand
     direction 1 -4.48951e-011 5.40064e-026   
     length 0.76799   
     axis -3.44607e-014 90 90   XYZ
    dof rx rz
    limits (-90.0 90.0)
           (-45.0 45.0)
  end
  begin
     id 22 
     name lfingers
     direction 1 -4.48971e-011 1.08013e-025   
     length 0.619174   
     axis -6.89214e-014 90 90   XYZ
    dof rx
    limits (0.0 90.0)
  end
  begin
     id 23
     name lthumb
     direction 0.707107 -6.34931e-011 0.707107   
     length 0.889013   
     axis -90 45 2.85299e-015   XYZ
    dof rx rz
    limits (-45.0 45.0)
           (-45.0 45.0)
  end
  begin
     id 24 
     name rclavicle
     direction -0.961409 0.252588 0.109054   
     length 4.04305  
     axis 0 0 0   XYZ 
    dof ry rz
    limits (-10.0 20.0)
           (-20.0 0.0)
  end
  begin
     id 25 
     name rhumerus
     direction -1 -4.4897e-011 1.33872e-017  
     length 4.70164   
     axis -180 30 90   XYZ
    dof rx ry rz
    limits (-90.0 60.0)
           (-90.0 90.0)
           (-90.0 90.0)
  end
  begin
     id 26 
     name rradius
     direction -1 -4.48954e-011 1.83844e-026   
     length 3.49911   
     axis -180 30 90   XYZ
    dof rx
    limits (-10.0 170.0)
  end
  begin
     id 27 
     name rwrist
     direction -1 -4.49008e-011 2.70032e-026   
     length 1.74955   
     axis -1.81515e-014 -90 -90   XYZ
    dof ry
    limits (-180.0 0.0)
  end
  begin
     id 28
     name rhand
     direction -1 -4.48916e-011 5.40064e-026   
     length 0.739335   
     axis -3.44607e-014 -90 -90   XYZ
    dof rx rz
    limits (-90.0 90.0)
           (-45.0 45.0)
  end
  begin
     id 29
     name rfingers
     direction -1 -4.48987e-011 1.08013e-025   
     length 0.596071   
     axis -6.89214e-014 -90 -90   XYZ
    dof rx
    limits (0.0 90.0)
  end
  begin
     id 30
     name rthumb
     direction -0.707107 -6.34935e-011 0.707107   
     length 0.855843   
     axis -90 -45 -2.85299e-015   XYZ
    dof rx rz
    limits (-45.0 45.0)
           (-45.0 45.0)
  end
:hierarchy
  begin
    root lhipjoint rhipjoint lowerback
    lhipjoint lfemur
    lfemur ltibia
    ltibia lfoot
    lfoot ltoes
    rhipjoint rfemur
    rfemur rtibia
    rtibia rfoot
    rfoot rtoes
    lowerback upperback
    upperback thorax
    thorax lowerneck lclavicle rclavicle
    lowerneck upperneck
    upperneck head
    lclavicle lhumerus
    lhumerus lradius
    lradius lwrist
    lwrist lhand lthumb
    lhand lfingers
    rclavicle rhumerus
    rhumerus rradius
    rradius rwrist
    rwrist rhand rthumb
    rhand rfingers
  end

#!OML:ASF I:\salsa\salsa 7_09\Patient 1\Session 1\dancermale.ASF
:FULLY-SPECIFIED
:DEGREES
324
root -0.956872 16.9513 -0.213771 637.438 84.5898 631.789
lowerback -5.19969 -1.20351 13.9238
upperback -1.22842 -2.28266 -2.60253
thorax 0.963209 -1.13836 -10.8081
lowerneck -4.80577 -2.54465 6.04727
upperneck 15.7751 -3.81134 -0.390228
head 5.4292 -1.4392 -1.33651
rclavicle -1.81577e-014 1.59028e-015
rhumerus -26.0376 16.6423 -118.32
rradius 69.578
rwrist -11.4922
rhand -28.9333 -10.2674
rfingers 7.12502
rthumb -2.28726 -40.2349
lclavicle -1.81577e-014 1.59028e-015
lhumerus -22.097 -10.6441 81.7976
lradius 84.4374
lwrist 66.3137
lhand -12.3402 47.5356
lfingers 7.12502
lthumb 13.7291 -282.937
rfemur -15.4336 -13.9425 31.2049
rtibia 33.8089
rfoot -23.4744 -12.452
rtoes -13.688
lfemur -41.9507 -0.240296 -13.1362
ltibia 42.0699
lfoot -0.0704112 -0.245292
ltoes 13.2598
325
root -0.848547 16.9323 -0.209499 639.264 84.8448 633.559
lowerback -5.40904 -1.03774 13.7275
upperback -1.20516 -2.08212 -2.61857
thorax 1.17126 -1.02019 -10.7123
lowerneck -4.85073 -2.60713 6.02654
upperneck 15.4738 -3.89457 -0.430593
head 5.33957 -1.49564 -1.34743
rclavicle 3.19422e-014 1.35174e-014
rhumerus -25.8268 18.0799 -118.15
rradius 68.4382
rwrist -13.4366
rhand -30.205 -9.61158
rfingers 7.12502
rthumb -3.51546 -39.5623
lclavicle 3.19422e-014 1.35174e-014
lhumerus -20.3429 -9.397 80.986
lradius 83.8198
lwrist 65.5573
lhand -11.8478 46.4833
lfingers 7.12502
lthumb 14.2037 -284.022
rfemur -15.8761 -13.4571 30.9384
rtibia 35.3083
rfoot -23.5199 -12.8371
rtoes -14.918
lfemur -41.4788 0.287132 -14.1424
ltibia 42.1027
lfoot -0.822194 0.911009
ltoes 6.43849
326
root -0.736124 16.9106 -0.205818 643.002 85.2203 637.411
lowerback -5.43277 -0.856553 13.4378
upperback -1.20912 -1.82475 -2.76671
thorax 1.25877 -0.885298 -10.6971
lowerneck -4.7414 -2.72773 6.24834
upperneck 15.1587 -4.04466 -0.625885
head 5.20916 -1.58124 -1.44628
rclavicle 5.77718e-016 -2.46493e-014
rhumerus -26.017 19.5422 -118.216
rradius 67.641
rwrist -16.1068
rhand -32.1983 -8.25817
rfingers 7.12502
rthumb -5.44021 -38.1683
lclavicle 5.77718e-016 -2.46493e-014
lhumerus -18.5439 -8.07703 80.1596
lradius 82.9101
lwrist 64.1439
lhand -11.1029 45.517
lfingers 7.12502
lthumb 14.9213 -285.04
rfemur -16.4116 -13.2288 30.3719
rtibia 37.3685
rfoot -23.4981 -12.9201
rtoes -17.1288
lfemur -40.6884 0.682781 -15.072
ltibia 41.9909
lfoot -1.65378 2.15788
ltoes 3.31629
327
root -0.628354 16.8897 -0.203777 648.689 85.8557 643.552
lowerback -4.98575 -0.792166 12.8972
upperback -1.18214 -1.64637 -3.0805
thorax 1.09365 -0.808602 -10.7069
lowerneck -4.53359 -2.77578 6.51227
upperneck 14.7904 -4.1046 -0.721576
head 5.05065 -1.61523 -1.51306
rclavicle -6.45429e-015 -2.94201e-014
rhumerus -26.2625 20.4996 -118.305
rradius 67.0095
rwrist -17.5556
rhand -33.139 -7.6171
rfingers 7.12502
rthumb -6.34841 -37.502
lclavicle -6.45429e-015 -2.94201e-014
lhumerus -16.4699 -6.25656 79.3457
lradius 81.4697
lwrist 62.3671
lhand -10.2109 44.5627
lfingers 7.12502
lthumb 15.7805 -286.061
rfemur -16.8928 -13.3383 29.263
rtibia 40.0001
rfoot -23.4343 -12.6715
rtoes -19.6364
lfemur -39.3553 0.689964 -16.0926
ltibia 41.6025
lfoot -2.60811 3.12823
ltoes 1.26932
328
root -0.532263 16.874 -0.201749 653.302 86.5435 648.671
lowerback -4.45708 -0.827657 12.2416
upperback -1.07632 -1.59674 -3.35677
thorax 0.934538 -0.79114 -10.6116
lowerneck -4.6125 -2.78456 6.42766
upperneck 14.5699 -4.14523 -0.513275
head 5.00153 -1.6346 -1.43542
rclavicle -5.35476e-015 7.95139e-016
rhumerus -26.3163 21.0121 -118.08
rradius 66.4916
rwrist -17.7354
rhand -33.0761 -7.80232
rfingers 7.12502
rthumb -6.28767 -37.689
lclavicle -5.35476e-015 7.95139e-016
lhumerus -13.9549 -3.92619 78.8829
lradius 79.6173
lwrist 60.4011
lhand -9.62823 43.6588
lfingers 7.12502
lthumb 16.3416 -287.01
rfemur -17.4847 -13.7882 28.0454
rtibia 42.8514
rfoot -23.0992 -12.0766
rtoes -21.1444
lfemur -38.0067 0.18626 -16.9648
ltibia 41.0138
lfoot -3.60968 3.70376
ltoes -0.357712
329
root -0.447673 16.8679 -0.198949 656.397 87.3157 652.16
lowerback -3.91803 -0.875297 11.5242
upperback -1.04451 -1.56314 -3.61763
thorax 0.687608 -0.789952 -10.4611
lowerneck -4.64866 -2.85072 6.34006
upperneck 14.3681 -4.25344 -0.338833
head 4.94786 -1.68841 -1.37077
rclavicle -9.42053e-015 1.98785e-014
rhumerus -26.4012 20.5564 -117.637
rradius 65.9499
rwrist -16.7892
rhand -32.7798 -7.80923
rfingers 7.12502
rthumb -6.00166 -37.7042
lclavicle -9.42053e-015 1.98785e-014
lhumerus -11.1365 -1.20196 78.9282
lradius 77.3192
lwrist 59.1975
lhand -9.23593 43.4228
lfingers 7.12502
lthumb 16.7193 -287.277
rfemur -18.3765 -14.5479 26.7792
rtibia 45.958
rfoot -22.4609 -11.1198
rtoes -21.4021
lfemur -36.8265 -0.8434 -17.6936
ltibia 40.256
lfoot -4.16905 4.1471
ltoes -1.50597
330
root -0.365505 16.8644 -0.189826 663.458 87.9252 659.381
lowerback -3.48596 -0.82996 10.8902
upperback -1.18548 -1.42034 -3.88342
thorax 0.342697 -0.745962 -10.3627
lowerneck -4.5235 -2.98477 6.26297
upperneck 14.1291 -4.43694 -0.177222
head 4.85276 -1.78029 -1.31201
rclavicle -1.38645e-014 -1.43125e-014
rhumerus -26.705 19.0859 -117.147
rradius 65.4482
rwrist -14.7356
rhand -32.2781 -7.61904
rfingers 7.12502
rthumb -5.51724 -37.5272
lclavicle -1.38645e-014 -1.43125e-014
lhumerus -8.15206 1.93382 79.4071
lradius 74.6476
lwrist 58.6726
lhand -9.04809 43.9317
lfingers 7.12502
lthumb 16.9001 -286.784
rfemur -19.6165 -15.3314 25.7171
rtibia 49.1368
rfoot -21.4895 -10.0888
rtoes -22.3704
lfemur -36.073 -1.41296 -18.3275
ltibia 39.8093
lfoot -4.78454 4.37422
ltoes -2.46498
331
root -0.284216 16.8513 -0.183981 660.235 88.4045 656.012
lowerback -3.56311 -0.855742 10.7192
upperback -1.32823 -1.44507 -4.14757
thorax 0.225196 -0.771471 -10.5553
lowerneck -4.49581 -3.08689 6.24133
upperneck 13.9489 -4.59273 -0.00125916
head 4.79308 -1.85307 -1.25896
rclavicle -7.29912e-016 1.59028e-015
rhumerus -27.124 17.6213 -116.811
rradius 65.1836
rwrist -13.9717
rhand -32.6401 -6.82259
rfingers 7.12502
rthumb -5.86675 -36.7214
lclavicle -7.29912e-016 1.59028e-015
lhumerus -5.1866 4.41614 79.7896
lradius 71.8612
lwrist 57.9983
lhand -9.23682 44.0932
lfingers 7.12502
lthumb 16.7185 -286.607
rfemur -21.2181 -16.3883 25.0658
rtibia 52.2594
rfoot -20.1546 -8.99362
rtoes -23.7952
lfemur -35.9676 -1.84235 -18.733
ltibia 39.783
lfoot -5.49655 4.37718
ltoes -3.17893
332
root -0.216927 16.8389 -0.180108 652.1 88.7298 647.749
lowerback -3.62168 -0.943814 10.7398
upperback -1.42213 -1.56066 -4.39163
thorax 0.119343 -0.840985 -10.8427
lowerneck -4.45785 -3.11952 6.25441
upperneck 13.7459 -4.65606 0.174537
head 4.72714 -1.87996 -1.20654
rclavicle 6.4605e-015 -7.95139e-016
rhumerus -27.5163 16.277 -116.417
rradius 65.0154
rwrist -13.5021
rhand -33.1534 -6.16169
rfingers 7.12502
rthumb -6.36228 -36.0461
lclavicle 6.4605e-015 -7.95139e-016
lhumerus -2.20613 6.36632 80.0364
lradius 68.8997
lwrist 57.2057
lhand -9.76721 43.8822
lfingers 7.12502
lthumb 16.2078 -286.775
rfemur -22.8142 -17.3442 24.5552
rtibia 55.1838
rfoot -18.4943 -7.60409
rtoes -23.7955
lfemur -35.7833 -2.02242 -19.0349
ltibia 39.5671
lfoot -5.95822 4.28039
ltoes -3.77062
333
root -0.158447 16.8278 -0.185614 631.471 89.0309 626.875
lowerback -3.78288 -1.0823 10.8212
upperback -1.54956 -1.755 -4.61093
thorax 0.011457 -0.952587 -11.1442
lowerneck -4.45565 -3.11046 6.18247
upperneck 13.6161 -4.66126 0.371522
head 4.69384 -1.87878 -1.13293
rclavicle 9.36152e-015 7.95139e-015
rhumerus -27.9172 15.1093 -115.789
rradius 64.9376
rwrist -12.8196
rhand -33.4692 -5.88651
rfingers 7.12502
rthumb -6.66716 -35.7615
lclavicle 9.36152e-015 7.95139e-015
lhumerus 0.311276 7.49857 80.1457
lradius 66.3043
lwrist 56.479
lhand -9.80303 44.0167
lfingers 7.12502
lthumb 16.1733 -286.638
rfemur -24.5292 -18.4243 24.0007
rtibia 57.9037
rfoot -16.684 -6.02725
rtoes -23.3678
lfemur -35.6426 -2.14112 -19.4472
ltibia 39.1471
lfoot -6.20315 3.98052
ltoes -3.8571
334
root -0.107684 16.8172 -0.1949 603.771 89.1736 598.957
lowerback -4.02759 -1.22624 10.8183
upperback -1.55508 -1.96787 -4.74729
thorax 0.0795411 -1.05565 -11.3085
lowerneck -4.66914 -3.03553 6.08342
upperneck 13.5449 -4.57866 0.429426
head 4.71378 -1.84321 -1.09852
rclavicle 2.01269e-015 -1.27222e-014
rhumerus -28.0071 14.4837 -114.838
rradius 64.6924
rwrist -11.7101
rhand -33.7571 -5.63356
rfingers 7.12502
rthumb -6.94508 -35.4996
lclavicle 2.01269e-015 -1.27222e-014
lhumerus 2.4937 7.83219 80.0432
lradius 64.098
lwrist 55.969
lhand -9.35425 44.5573
lfingers 7.12502
lthumb 16.6054 -286.133
rfemur -26.1148 -19.4029 23.4092
rtibia 60.3182
rfoot -15.3478 -4.72684
rtoes -23.7852
lfemur -35.4123 -2.19679 -19.8825
ltibia 38.653
lfoot -6.63224 3.54422
ltoes -4.30956
335
root -0.065228 16.8053 -0.202586 578.093 89.0335 573.106
lowerback -4.28824 -1.39808 10.8268
upperback -1.47899 -2.22518 -4.79644
thorax 0.233541 -1.17171 -11.3864
lowerneck -4.91167 -2.91948 5.94153
upperneck 13.3567 -4.42126 0.345389
head 4.70134 -1.78729 -1.09606
rclavicle -2.37268e-014 -3.18055e-015
rhumerus -27.7209 14.321 -113.655
rradius 64.124
rwrist -10.3256
rhand -34.3552 -5.60023
rfingers 7.12502
rthumb -7.52242 -35.4465
lclavicle -2.37268e-014 -3.18055e-015
lhumerus 3.93282 7.71941 79.8523
lradius 62.7367
lwrist 55.6472
lhand -9.26025 44.7433
lfingers 7.12502
lthumb 16.6959 -285.955
rfemur -27.5677 -20.3842 22.9518
rtibia 62.58
rfoot -14.6743 -3.84662
rtoes -26.1072
lfemur -35.3627 -2.55649 -20.1352
ltibia 38.5196
lfoot -7.36382 3.30544
ltoes -4.88647
336
root -0.033356 16.7958 -0.201084 568.134 88.9038 563.156
lowerback -4.09441 -1.56267 10.821
upperback -1.51398 -2.42578 -4.81087
thorax 0.0313831 -1.28891 -11.3945
lowerneck -5.13464 -2.78964 5.78099
upperneck 13.4011 -4.24274 0.271214
head 4.75835 -1.71205 -1.08872
rclavicle -2.77677e-015 1.19271e-014
rhumerus -27.4652 14.0281 -112.377
rradius 63.5099
rwrist -9.09978
rhand -34.4523 -5.45498
rfingers 7.12502
rthumb -7.61616 -35.2978
lclavicle -2.77677e-015 1.19271e-014
lhumerus 4.37821 6.99719 79.4076
lradius 62.1662
lwrist 55.5718
lhand -9.53319 44.5955
lfingers 7.12502
lthumb 16.4331 -286.081
rfemur -28.6337 -21.0256 22.6277
rtibia 64.5972
rfoot -14.4823 -3.77411
rtoes -27.6644
lfemur -35.3052 -2.98487 -20.2012
ltibia 38.6687
lfoot -7.63859 3.34576
ltoes -6.13998
337
root -0.010342 16.788 -0.191996 564.512 88.8931 559.635
lowerback -3.7537 -1.69857 10.6647
upperback -1.54633 -2.57007 -4.74719
thorax -0.223146 -1.37962 -11.2159
lowerneck -5.12262 -2.6507 5.91661
upperneck 13.1143 -4.01177 -0.18534
head 4.66042 -1.63266 -1.23565
rclavicle -1.42566e-015 -4.77083e-015
rhumerus -27.2142 13.7526 -110.946
rradius 63.1178
rwrist -8.40366
rhand -34.2994 -5.41753
rfingers 7.12502
rthumb -7.46852 -35.2657
lclavicle -1.42566e-015 -4.77083e-015
lhumerus 4.36044 6.42399 79.1611
lradius 62.0043
lwrist 55.5931
lhand -9.87323 44.3964
lfingers 7.12502
lthumb 16.1057 -286.253
rfemur -29.4211 -21.3618 22.371
rtibia 66.3394
rfoot -14.7023 -4.48641
rtoes -28.442
lfemur -35.2524 -3.38439 -20.1748
ltibia 38.9117
lfoot -7.36797 3.50215
ltoes -8.37219
